<svg width="228" height="59" viewBox="0 0 228 59" fill="none" xmlns="http://www.w3.org/2000/svg">
<path d="M20.84 42H0.76L5.84 13.2H25.92L24.8 19.44H11.92L11 24.84H21.64L20.52 31.08H9.88L9.08 35.76H21.96L20.84 42ZM38.4475 29.72C38.4475 28.5733 37.8875 28 36.7675 28C35.6742 28 34.7675 28.4133 34.0475 29.24L31.8075 42H25.0075L28.4075 22.76H34.7275L34.2875 25.12C35.8608 23.1733 37.8475 22.2 40.2475 22.2C42.6475 22.2 44.2075 22.7867 44.9275 23.96C45.3808 24.7067 45.6075 25.56 45.6075 26.52C45.6075 27.48 45.5408 28.3733 45.4075 29.2L44.3275 35.36C44.3008 35.52 44.2875 35.6667 44.2875 35.8C44.2875 36.52 44.6875 36.88 45.4875 36.88C46.1008 36.88 46.6475 36.7467 47.1275 36.48L46.9275 41C45.6742 42.04 44.2475 42.56 42.6475 42.56C39.0208 42.56 37.2075 41.04 37.2075 38C37.2075 37.4667 37.2608 36.8933 37.3675 36.28L38.3275 30.96C38.4075 30.48 38.4475 30.0667 38.4475 29.72ZM56.9938 33.8C56.9938 35.64 58.3138 36.56 60.9538 36.56C63.6204 36.56 64.9538 35.7333 64.9538 34.08C64.9538 33.2 64.5004 32.48 63.5938 31.92C62.6871 31.36 61.5804 30.8933 60.2738 30.52C58.9938 30.1467 57.7004 29.72 56.3938 29.24C55.1138 28.7333 54.0204 27.96 53.1138 26.92C52.2071 25.8533 51.7538 24.5333 51.7538 22.96C51.7538 16.2667 56.0604 12.92 64.6738 12.92C67.8204 12.92 70.1938 13.52 71.7938 14.72C73.4204 15.8933 74.2338 17.5333 74.2338 19.64C74.2338 20.4133 74.1271 21.16 73.9138 21.88C73.7271 22.5733 73.5271 23.0667 73.3138 23.36L72.9938 23.84H65.9138C66.5004 23.2267 66.7938 22.4533 66.7938 21.52C66.7938 19.7867 65.6604 18.92 63.3938 18.92C60.5404 18.92 59.1138 19.8267 59.1138 21.64C59.1138 22.5467 59.5671 23.2667 60.4738 23.8C61.3804 24.3333 62.4738 24.76 63.7538 25.08C65.0604 25.3733 66.3671 25.7467 67.6738 26.2C68.9804 26.6533 70.0871 27.4133 70.9938 28.48C71.9004 29.52 72.3538 30.88 72.3538 32.56C72.3538 35.9467 71.3404 38.4667 69.3138 40.12C67.2871 41.7467 64.1671 42.56 59.9538 42.56C55.7404 42.56 52.8604 41.8133 51.3138 40.32C50.1671 39.2 49.5938 37.6533 49.5938 35.68C49.5938 34.9333 49.6738 34.12 49.8338 33.24L49.9538 32.6H57.1538L57.0738 33.08C57.0204 33.3467 56.9938 33.5867 56.9938 33.8ZM83.4913 42.56C77.9446 42.56 75.1713 40.64 75.1713 36.8C75.1713 36.2667 75.2246 35.6933 75.3313 35.08L76.1713 30.12C76.5979 27.56 77.7579 25.6 79.6513 24.24C81.5713 22.88 83.9979 22.1867 86.9313 22.16C92.6113 22.16 95.4513 24.1333 95.4513 28.08C95.4513 28.9333 95.3446 29.7067 95.1313 30.4C94.9446 31.0667 94.7446 31.52 94.5312 31.76L94.2113 32.16H87.4113C88.0779 31.5733 88.4113 30.88 88.4113 30.08C88.4113 28.64 87.6913 27.92 86.2513 27.92C85.3979 27.92 84.6646 28.1733 84.0513 28.68C83.4379 29.1867 83.0379 29.96 82.8513 31L82.3313 33.92C82.2779 34.1867 82.2513 34.44 82.2513 34.68C82.2513 36.0933 83.1313 36.8 84.8913 36.8C85.4779 36.8 85.9979 36.6133 86.4513 36.24C86.9313 35.8667 87.2113 35.4533 87.2913 35L93.9313 35.08C93.0513 40.0667 89.5713 42.56 83.4913 42.56ZM118.163 36.88C118.777 36.88 119.323 36.7467 119.803 36.48L119.603 41C118.35 42.04 116.923 42.56 115.323 42.56C111.697 42.56 109.883 41.04 109.883 38C109.883 37.4667 109.937 36.8933 110.043 36.28L110.923 31.36C111.003 30.88 111.043 30.4 111.043 29.92C111.043 28.64 110.363 28 109.003 28C107.67 28 106.63 28.4533 105.883 29.36L103.643 42H96.8434L102.203 11.64H109.003L106.723 24.56C108.19 22.9867 110.03 22.2 112.243 22.2C114.937 22.2 116.683 22.8 117.483 24C118.043 24.8 118.323 25.6933 118.323 26.68C118.323 27.6667 118.243 28.5733 118.083 29.4L117.003 35.36C116.977 35.52 116.963 35.6667 116.963 35.8C116.963 36.52 117.363 36.88 118.163 36.88ZM130.249 42.56C124.702 42.56 121.929 40.64 121.929 36.8C121.929 36.2667 121.982 35.6933 122.089 35.08L122.929 30.12C123.382 27.56 124.556 25.6 126.449 24.24C128.369 22.8533 130.902 22.16 134.049 22.16C139.409 22.16 142.089 24.1867 142.089 28.24C142.089 28.8267 142.036 29.4667 141.929 30.16L141.449 33H129.249L129.089 33.92C129.036 34.24 129.009 34.5333 129.009 34.8C129.009 36.2667 129.876 37 131.609 37C132.249 37 132.796 36.8 133.249 36.4C133.702 36 133.969 35.5333 134.049 35L140.689 35.08C139.809 40.0667 136.329 42.56 130.249 42.56ZM135.049 30.56C135.156 30.1067 135.209 29.6933 135.209 29.32C135.209 28.92 135.036 28.52 134.689 28.12C134.342 27.72 133.782 27.52 133.009 27.52C132.262 27.52 131.569 27.7733 130.929 28.28C130.316 28.7867 129.889 29.5467 129.649 30.56H135.049ZM162.999 35.84C162.999 36.5333 163.346 36.88 164.039 36.88C164.759 36.88 165.359 36.7467 165.839 36.48L165.639 41C164.359 42.04 162.919 42.56 161.319 42.56C158.386 42.56 156.759 41.4933 156.439 39.36C155.106 41.4933 153.146 42.56 150.559 42.56C146.186 42.56 143.999 40.68 143.999 36.92C143.999 36.28 144.066 35.5733 144.199 34.8L145.039 30.12C145.466 27.72 146.439 25.8133 147.959 24.4C149.506 22.96 151.639 22.24 154.359 22.24C156.039 22.24 157.373 22.6 158.359 23.32L160.399 11.64H167.239L163.039 35.36C163.013 35.52 162.999 35.68 162.999 35.84ZM151.159 33.92C151.106 34.16 151.079 34.4933 151.079 34.92C151.079 35.3467 151.279 35.7733 151.679 36.2C152.079 36.6 152.746 36.8 153.679 36.8C154.639 36.8 155.466 36.4267 156.159 35.68L157.359 28.96C157.066 28.2933 156.373 27.96 155.279 27.96C153.226 27.96 152.026 28.9467 151.679 30.92L151.159 33.92ZM188.363 35.84C188.363 36.5333 188.71 36.88 189.403 36.88C190.123 36.88 190.723 36.7467 191.203 36.48L191.003 41C189.723 42.04 188.283 42.56 186.683 42.56C183.67 42.56 182.03 41.4 181.763 39.08C180.163 41.4 178.003 42.56 175.283 42.56C172.59 42.56 170.843 41.9467 170.043 40.72C169.51 39.9467 169.243 39.0667 169.243 38.08C169.243 37.0933 169.323 36.1867 169.483 35.36L171.723 22.76H178.523L176.643 33.4C176.563 33.88 176.523 34.36 176.523 34.84C176.523 36.12 177.243 36.76 178.683 36.76C179.883 36.76 180.843 36.3467 181.563 35.52L183.843 22.76H190.643L188.403 35.36C188.376 35.52 188.363 35.68 188.363 35.84ZM201.133 35.84C201.133 36.5333 201.479 36.88 202.173 36.88C202.893 36.88 203.493 36.7467 203.973 36.48L203.773 41C202.493 42.04 201.053 42.56 199.453 42.56C197.026 42.56 195.453 42 194.733 40.88C194.279 40.16 194.053 39.3733 194.053 38.52C194.053 37.6667 194.106 36.92 194.213 36.28L198.573 11.64H205.373L201.173 35.36C201.146 35.52 201.133 35.68 201.133 35.84ZM214.546 42.56C208.999 42.56 206.226 40.64 206.226 36.8C206.226 36.2667 206.279 35.6933 206.386 35.08L207.226 30.12C207.679 27.56 208.853 25.6 210.746 24.24C212.666 22.8533 215.199 22.16 218.346 22.16C223.706 22.16 226.386 24.1867 226.386 28.24C226.386 28.8267 226.333 29.4667 226.226 30.16L225.746 33H213.546L213.386 33.92C213.333 34.24 213.306 34.5333 213.306 34.8C213.306 36.2667 214.173 37 215.906 37C216.546 37 217.093 36.8 217.546 36.4C217.999 36 218.266 35.5333 218.346 35L224.986 35.08C224.106 40.0667 220.626 42.56 214.546 42.56ZM219.346 30.56C219.453 30.1067 219.506 29.6933 219.506 29.32C219.506 28.92 219.333 28.52 218.986 28.12C218.639 27.72 218.079 27.52 217.306 27.52C216.559 27.52 215.866 27.7733 215.226 28.28C214.613 28.7867 214.186 29.5467 213.946 30.56H219.346Z" fill="url(#paint0_radial_1_18)"/>
<defs>
<radialGradient id="paint0_radial_1_18" cx="0" cy="0" r="1" gradientUnits="userSpaceOnUse" gradientTransform="translate(114 29.5) rotate(90) scale(29.5 114)">
<stop stop-color="#907DFF"/>
<stop offset="1" stop-color="#FF5520"/>
</radialGradient>
</defs>
</svg>
